<svg width="35" height="27" viewBox="0 0 35 27" fill="none" xmlns="http://www.w3.org/2000/svg">
<path d="M0 0.0771484V27.0002H35V0.0771484H0ZM2.69231 2.76946H32.3077V24.3079H27.7227C27.6177 24.1235 27.6648 23.8718 27.5113 23.7183C27.0038 23.2095 26.281 22.9618 25.5769 22.9618C24.8729 22.9618 24.1513 23.2095 23.6412 23.7196C23.489 23.8718 23.5362 24.1235 23.4312 24.3079H11.5688C11.4638 24.1235 11.511 23.8718 11.3588 23.7183C10.8473 23.2095 10.1271 22.9618 9.42308 22.9618C8.71904 22.9618 7.9975 23.2095 7.48731 23.7196C7.33519 23.8718 7.38231 24.1235 7.27731 24.3079H2.69231V2.76946ZM12.1154 5.46176C9.15385 5.46176 6.73077 7.88484 6.73077 10.8464C6.73077 12.3446 7.37288 13.6962 8.37173 14.6748C7.45585 15.2936 6.70497 16.1267 6.18438 17.1017C5.66379 18.0767 5.38924 19.1642 5.38462 20.2695H8.07692C8.07692 19.1984 8.5024 18.1712 9.25976 17.4138C10.0171 16.6565 11.0443 16.231 12.1154 16.231C13.1865 16.231 14.2137 16.6565 14.971 17.4138C15.7284 18.1712 16.1538 19.1984 16.1538 20.2695H18.8462C18.8415 19.1642 18.567 18.0767 18.0464 17.1017C17.5258 16.1267 16.7749 15.2936 15.859 14.6748C16.8579 13.6962 17.5 12.346 17.5 10.8464C17.5 7.88484 15.0769 5.46176 12.1154 5.46176ZM12.1154 8.15407C13.619 8.15407 14.8077 9.34273 14.8077 10.8464C14.8077 12.35 13.619 13.5387 12.1154 13.5387C10.6117 13.5387 9.42308 12.35 9.42308 10.8464C9.42308 9.34273 10.6117 8.15407 12.1154 8.15407ZM21.5385 9.50023V12.1925H29.6154V9.50023H21.5385ZM21.5385 14.8848V17.5771H29.6154V14.8848H21.5385Z" fill="#FCC028"/>
</svg>
