<svg width="50" height="54" viewBox="0 0 50 54" fill="none" xmlns="http://www.w3.org/2000/svg">
<path d="M44.4196 38.7029L35.9311 36.5853C35.8994 36.5375 35.8646 36.4914 35.8231 36.4499L33.2947 33.9204V31.4991C33.5051 31.2852 33.7111 31.0631 33.9116 30.8317C36.2708 28.1072 37.6892 24.4368 37.9058 20.4965C37.9145 20.3384 37.9225 20.1806 37.9304 20.023C37.9567 19.5016 37.9816 19.0093 38.0313 18.5124L38.8684 10.1404C39.1271 7.55255 38.2748 4.96265 36.5298 3.03434C34.7848 1.10592 32.2922 0 29.6915 0H20.3085C17.7078 0 15.2153 1.10592 13.4702 3.03422C11.7251 4.96253 10.8727 7.55267 11.1314 10.1404L11.968 18.5067C12.0179 19.0055 12.043 19.502 12.0696 20.0277C12.0775 20.184 12.0854 20.3403 12.094 20.4965C12.3106 24.4368 13.729 28.1072 16.0882 30.8317C16.2885 31.0631 16.4947 31.285 16.7051 31.4991V33.9204L14.1766 36.4498C14.1361 36.4903 14.102 36.5349 14.0709 36.5813L5.57993 38.703C1.98167 39.6026 0 41.811 0 44.9216V50.9861C0 52.4893 1.22297 53.7123 2.72622 53.7123H47.2738C48.777 53.7123 50 52.4893 50 50.9861V44.9215C50 41.811 48.0183 39.6026 44.4196 38.7029ZM24.0719 48.1439H25.9281C25.9928 48.1439 26.0567 48.1407 26.1204 48.1363L26.7733 51.9722H23.2267L23.8796 48.1363C23.9433 48.1407 24.0072 48.1439 24.0719 48.1439ZM26.9142 45.4176C26.9142 45.9614 26.4718 46.4037 25.9281 46.4037H24.0719C23.5282 46.4037 23.0858 45.9614 23.0858 45.4176V44.0271L25 42.751L26.9142 44.0271V45.4176ZM18.4455 32.991C20.4137 34.3979 22.665 35.1508 25 35.1508C27.335 35.1508 29.5863 34.3979 31.5545 32.991V33.9204L25 40.4749L18.4455 33.9204V32.991ZM28.2718 42.8408C28.2709 42.8403 28.27 42.8397 28.269 42.839L26.3657 41.5701L32.4245 35.5113L34.13 37.2174C33.5545 38.2558 32.2029 40.6883 30.2945 44.12C30.291 44.1265 30.2834 44.1399 30.2621 44.1451C30.2375 44.1512 30.2198 44.1394 30.214 44.1356L28.2718 42.8408ZM14.7604 4.20186C16.1762 2.63736 18.1985 1.74014 20.3085 1.74014H29.6915C31.8016 1.74014 33.8238 2.63736 35.2397 4.20186C36.6555 5.76624 37.347 7.86763 37.137 9.96705L36.6072 15.265C35.4316 12.4633 34.1309 10.6688 34.0543 10.5643C33.777 10.186 33.2494 10.0957 32.8622 10.3602C30.5756 11.9212 20.392 12.12 16.6602 12.065C16.4085 12.0602 16.1673 12.1667 15.9993 12.3544C14.9331 13.5445 14.0942 14.8827 13.4719 16.0562L12.8631 9.96717C12.653 7.86775 13.3447 5.76636 14.7604 4.20186ZM13.8317 20.401C13.8232 20.2472 13.8154 20.0935 13.8077 19.9397C13.8023 19.8333 13.7968 19.7256 13.7911 19.6179C13.9785 19.0856 15.0661 16.1521 17.0399 13.8096C19.4474 13.8307 29.2807 13.815 33.0626 12.211C33.8084 13.3874 35.3805 16.1411 36.2099 19.5979C36.2038 19.7109 36.1981 19.8237 36.1925 19.9352C36.1846 20.0903 36.1768 20.2455 36.1682 20.401C35.7673 27.6962 30.8616 33.4107 25 33.4107C19.1384 33.4107 14.2327 27.6962 13.8317 20.401ZM17.5755 35.5113L23.6343 41.5701L21.7306 42.8392C21.7299 42.8397 21.7291 42.8403 21.7284 42.8407L19.786 44.1357C19.7803 44.1397 19.7626 44.1513 19.7379 44.1452C19.7166 44.1401 19.709 44.1266 19.7056 44.1202C17.7972 40.6884 16.4456 38.2559 15.8701 37.2175L17.5755 35.5113ZM1.74014 50.9861V44.9216C1.74014 42.6224 3.17401 41.0981 6.00186 40.3912L14.4674 38.2761C14.969 39.1819 16.0092 41.0536 18.1848 44.9659C18.4273 45.4019 18.8442 45.7193 19.3284 45.8364C19.4672 45.8701 19.6084 45.8865 19.7492 45.8865C20.1023 45.8865 20.4526 45.7826 20.7513 45.5835L21.3458 45.1871V45.4175C21.3458 46.2136 21.6889 46.9309 22.2348 47.4298L21.4616 51.9722H10.0928V47.2738C10.0928 46.7933 9.70325 46.4037 9.22274 46.4037C8.74223 46.4037 8.35267 46.7933 8.35267 47.2738V51.9722H2.72622C2.18248 51.9722 1.74014 51.5298 1.74014 50.9861ZM48.2599 50.9861C48.2599 51.5298 47.8175 51.9722 47.2738 51.9722H41.6473V47.2738C41.6473 46.7933 41.2578 46.4037 40.7773 46.4037C40.2968 46.4037 39.9072 46.7933 39.9072 47.2738V51.9722H28.5384L27.7652 47.4299C28.3111 46.9311 28.6542 46.2137 28.6542 45.4176V45.1872L29.2487 45.5836C29.5474 45.7828 29.8977 45.8867 30.2508 45.8867C30.3916 45.8867 30.5329 45.8701 30.6716 45.8365C31.1558 45.7193 31.5727 45.402 31.8152 44.9659C33.9885 41.0577 35.0288 39.1858 35.531 38.2789L43.9979 40.3912C46.826 41.0981 48.2599 42.6224 48.2599 44.9215V50.9861Z" fill="black"/>
</svg>
