<svg width="31" height="28" viewBox="0 0 31 28" fill="none" xmlns="http://www.w3.org/2000/svg">
<path d="M30.5 10.5471V24.0771C30.5 25.7271 29.15 27.0771 27.5 27.0771H3.5C1.85 27.0771 0.5 25.7271 0.5 24.0771V6.07715C0.5 4.42715 1.85 3.07715 3.5 3.07715H18.65C18.56 3.55715 18.5 4.06715 18.5 4.57715C18.5 6.79715 19.475 8.76215 21.005 10.1421L15.5 13.5771L3.5 6.07715V9.07715L15.5 16.5771L23.45 11.5971C24.26 11.8971 25.1 12.0771 26 12.0771C27.695 12.0771 29.24 11.4921 30.5 10.5471ZM21.5 4.57715C21.5 7.06715 23.51 9.07715 26 9.07715C28.49 9.07715 30.5 7.06715 30.5 4.57715C30.5 2.08715 28.49 0.0771484 26 0.0771484C23.51 0.0771484 21.5 2.08715 21.5 4.57715Z" fill="#FCC028"/>
</svg>
