<svg width="35" height="35" viewBox="0 0 35 35" fill="none" xmlns="http://www.w3.org/2000/svg">
<path fill-rule="evenodd" clip-rule="evenodd" d="M24.0625 2.1875H10.9375C10.3573 2.1875 9.80094 2.41797 9.3907 2.8282C8.98047 3.23844 8.75 3.79484 8.75 4.375V17.5C8.75 17.7901 8.63477 18.0683 8.42965 18.2734C8.22453 18.4785 7.94633 18.5938 7.65625 18.5938C7.36617 18.5938 7.08797 18.4785 6.88285 18.2734C6.67773 18.0683 6.5625 17.7901 6.5625 17.5V4.375C6.5625 3.21468 7.02344 2.10188 7.84391 1.28141C8.66438 0.460936 9.77718 0 10.9375 0L24.0625 0C25.2228 0 26.3356 0.460936 27.1561 1.28141C27.9766 2.10188 28.4375 3.21468 28.4375 4.375V17.5C28.4375 17.7901 28.3223 18.0683 28.1171 18.2734C27.912 18.4785 27.6338 18.5938 27.3438 18.5938C27.0537 18.5938 26.7755 18.4785 26.5704 18.2734C26.3652 18.0683 26.25 17.7901 26.25 17.5V4.375C26.25 3.79484 26.0195 3.23844 25.6093 2.8282C25.1991 2.41797 24.6427 2.1875 24.0625 2.1875ZM26.25 30.625C26.25 31.2052 26.0195 31.7616 25.6093 32.1718C25.1991 32.582 24.6427 32.8125 24.0625 32.8125H10.9375C10.3573 32.8125 9.80094 32.582 9.3907 32.1718C8.98047 31.7616 8.75 31.2052 8.75 30.625V26.25C8.75 25.9599 8.63477 25.6817 8.42965 25.4766C8.22453 25.2715 7.94633 25.1562 7.65625 25.1562C7.36617 25.1562 7.08797 25.2715 6.88285 25.4766C6.67773 25.6817 6.5625 25.9599 6.5625 26.25V30.625C6.5625 31.7853 7.02344 32.8981 7.84391 33.7186C8.66438 34.5391 9.77718 35 10.9375 35H24.0625C25.2228 35 26.3356 34.5391 27.1561 33.7186C27.9766 32.8981 28.4375 31.7853 28.4375 30.625V26.25C28.4375 25.9599 28.3223 25.6817 28.1171 25.4766C27.912 25.2715 27.6338 25.1562 27.3438 25.1562C27.0537 25.1562 26.7755 25.2715 26.5704 25.4766C26.3652 25.6817 26.25 25.9599 26.25 26.25V30.625ZM3.74719 17.3994C4.01058 17.2778 4.2149 17.0566 4.31521 16.7844C4.41551 16.5123 4.40357 16.2114 4.28203 15.948C4.22185 15.8175 4.13657 15.7003 4.03106 15.6028C3.92555 15.5053 3.80187 15.4296 3.6671 15.38C3.39491 15.2796 3.09402 15.2916 2.83063 15.4131C2.07156 15.7631 1.4 16.1744 0.90125 16.66C0.4025 17.1544 0 17.8041 0 18.5938C0 19.7881 0.8925 20.65 1.80031 21.2209C2.76281 21.8291 4.08188 22.3366 5.6175 22.7434C8.70187 23.5659 12.9019 24.0625 17.5 24.0625C17.7166 24.0625 17.9309 24.0625 18.1431 24.0581L15.6319 26.5694C15.5302 26.6711 15.4495 26.7918 15.3945 26.9247C15.3394 27.0575 15.3111 27.1999 15.3111 27.3438C15.3111 27.4876 15.3394 27.63 15.3945 27.7628C15.4495 27.8957 15.5302 28.0164 15.6319 28.1181C15.8373 28.3235 16.1158 28.4389 16.4062 28.4389C16.5501 28.4389 16.6925 28.4106 16.8253 28.3555C16.9582 28.3005 17.0789 28.2198 17.1806 28.1181L21.5556 23.7431C21.6575 23.6415 21.7383 23.5208 21.7934 23.3879C21.8486 23.2551 21.877 23.1126 21.877 22.9688C21.877 22.8249 21.8486 22.6824 21.7934 22.5496C21.7383 22.4167 21.6575 22.296 21.5556 22.1944L17.1806 17.8194C17.0789 17.7177 16.9582 17.637 16.8253 17.582C16.6925 17.5269 16.5501 17.4986 16.4062 17.4986C16.2624 17.4986 16.12 17.5269 15.9872 17.582C15.8543 17.637 15.7336 17.7177 15.6319 17.8194C15.5302 17.9211 15.4495 18.0418 15.3945 18.1747C15.3394 18.3075 15.3111 18.4499 15.3111 18.5938C15.3111 18.7376 15.3394 18.88 15.3945 19.0128C15.4495 19.1457 15.5302 19.2664 15.6319 19.3681L18.1366 21.8706L17.5 21.875C13.0375 21.875 9.03438 21.3916 6.18187 20.6303C4.74687 20.2475 3.66406 19.8122 2.96625 19.3725C2.21375 18.8978 2.1875 18.6069 2.1875 18.5938C2.1875 18.5872 2.1875 18.4647 2.4325 18.2219C2.68406 17.9769 3.11063 17.6925 3.745 17.3994H3.74719ZM32.1694 15.4131C31.906 15.2916 31.6051 15.2796 31.3329 15.38C31.0607 15.4803 30.8395 15.6846 30.718 15.948C30.5964 16.2114 30.5845 16.5123 30.6848 16.7844C30.7851 17.0566 30.9894 17.2778 31.2528 17.3994C31.8916 17.6925 32.3159 17.9769 32.5653 18.2241C32.8125 18.4647 32.8125 18.5872 32.8125 18.5938C32.8125 18.6003 32.8125 18.7359 32.5281 19.0028C32.2394 19.2697 31.7581 19.5716 31.0472 19.8778C29.6362 20.4903 27.5559 21.0219 25.0031 21.3806C24.7199 21.4257 24.4657 21.5802 24.2953 21.8109C24.1249 22.0416 24.0519 22.33 24.092 22.6139C24.1322 22.8979 24.2823 23.1547 24.51 23.3291C24.7377 23.5035 25.0247 23.5815 25.3094 23.5462C27.9606 23.1744 30.2531 22.6056 31.9156 21.8881C32.7469 21.5294 33.4753 21.1072 34.0156 20.6041C34.5537 20.1031 35 19.4294 35 18.5938C35 17.8019 34.5975 17.15 34.0988 16.6622C33.6 16.1744 32.9284 15.7631 32.1694 15.4131ZM16.4062 4.375C16.1162 4.375 15.838 4.49023 15.6329 4.69535C15.4277 4.90047 15.3125 5.17867 15.3125 5.46875C15.3125 5.75883 15.4277 6.03703 15.6329 6.24215C15.838 6.44727 16.1162 6.5625 16.4062 6.5625H18.5938C18.8838 6.5625 19.162 6.44727 19.3671 6.24215C19.5723 6.03703 19.6875 5.75883 19.6875 5.46875C19.6875 5.17867 19.5723 4.90047 19.3671 4.69535C19.162 4.49023 18.8838 4.375 18.5938 4.375H16.4062Z" fill="#FCC028"/>
</svg>
